PathFileType  4	(X/Y/Z) C:\Users\antoi\Documents\MyRepositories\mobilecap\ResultsAnalysis
DataRate	CameraRate	NumFrames	NumMarkers	Units	OrigDataRate	OrigDataStartFrame	OrigNumFrames
100.0	100.0	6	51	mm	100.0	1	1346
Frame#	Time	r_knee			r_shank_antsup			r_ankle			r_calc			r_5meta			r_toe			L_knee			L_shank_antsup			L_ankle			L_calc			L_5meta			L_toe			r_sh2			r_sh3			r_sh4			L_sh2			L_sh3			r_thigh1			r_thigh2			r_thigh3			r_thigh4			r_thigh5			L_thigh1			L_thigh2			L_thigh3			L_thigh4			r.ASIS			r.PSIS			L.ASIS			L.PSIS			C7			R_Shoulder			L_Shoulder			R_Sternum			L_Sternum			R_humerus			R_elbow_med			R_elbow_lat			R_forearm			R_wrist_radius			R_wrist_ulna			L_humerus			L_elbow_med			L_elbow_lat			L_forearm			L_wrist_radius			L_wrist_ulna			R_HJC			L_HJC			R_HJC_reg			L_HJC_reg			
		X1	Y1	Z1	X2	Y2	Z2	X3	Y3	Z3	X4	Y4	Z4	X5	Y5	Z5	X6	Y6	Z6	X7	Y7	Z7	X8	Y8	Z8	X9	Y9	Z9	X10	Y10	Z10	X11	Y11	Z11	X12	Y12	Z12	X13	Y13	Z13	X14	Y14	Z14	X15	Y15	Z15	X16	Y16	Z16	X17	Y17	Z17	X18	Y18	Z18	X19	Y19	Z19	X20	Y20	Z20	X21	Y21	Z21	X22	Y22	Z22	X23	Y23	Z23	X24	Y24	Z24	X25	Y25	Z25	X26	Y26	Z26	X27	Y27	Z27	X28	Y28	Z28	X29	Y29	Z29	X30	Y30	Z30	X31	Y31	Z31	X32	Y32	Z32	X33	Y33	Z33	X34	Y34	Z34	X35	Y35	Z35	X36	Y36	Z36	X37	Y37	Z37	X38	Y38	Z38	X39	Y39	Z39	X40	Y40	Z40	X41	Y41	Z41	X42	Y42	Z42	X43	Y43	Z43	X44	Y44	Z44	X45	Y45	Z45	X46	Y46	Z46	X47	Y47	Z47	X48	Y48	Z48	X49	Y49	Z49	X50	Y50	Z50	X51	Y51	Z51	

1	0.00000000	-216.83676	502.36184	-413.75081	-188.93146	411.88659	-408.24363	-277.96285	94.12785	-389.28642	-337.57352	58.08333	-437.17721	-159.71992	43.25026	-342.49609	-124.75334	70.96497	-396.64470	-218.32452	505.67807	-789.62647	-186.35679	422.99191	-788.93402	-266.39542	98.01524	-819.22809	-335.70543	50.73869	-772.55439	-160.79338	40.73363	-864.96044	-113.02178	65.75268	-809.94934	-201.62253	298.96262	-399.43225	-254.14031	420.62102	-371.05181	-272.29808	308.86652	-357.89551	-267.92685	446.84067	-824.83329	-281.37727	327.01519	-844.10847	-147.06218	780.62449	-422.80047	-146.76080	669.73682	-421.89235	-200.85621	644.98885	-389.39548	-260.00171	776.52124	-408.60215	-251.26173	660.33784	-409.39813	-134.87960	750.77838	-781.61902	-127.90573	610.25981	-774.04987	-239.30977	746.09052	-815.68750	-234.82036	613.28125	-799.69586	-106.67955	962.84240	-479.62041	-312.46692	1009.91180	-562.75795	-114.04759	963.27075	-738.11968	-313.43359	1009.90315	-656.25117	-278.79873	1461.72791	-610.37048	-212.36916	1434.34227	-441.60300	-190.13098	1431.56821	-761.70301	-151.78711	1390.84643	-580.31129	-152.89354	1392.75731	-625.73492	-169.76099	1303.55799	-390.47266	-227.96209	1097.83375	-445.56000	-225.06435	1106.02566	-378.27942	-169.22325	1047.57742	-351.27295	-101.58241	889.78857	-373.78797	-139.80832	886.89358	-341.61957	-152.46931	1290.53114	-814.00587	-223.21878	1090.66731	-768.45496	-190.66164	1099.88928	-838.48069	-136.33609	1046.87418	-843.15771	-78.63667	878.09392	-811.31742	-109.21972	878.68980	-854.45558	-198.02769	882.00534	-507.34652	-199.29310	882.55093	-696.90403	-187.49893	890.22076	-515.42129	-189.26357	890.20496	-686.09121	
2	0.01000000	-216.79303	502.38753	-413.71924	-188.85283	411.85615	-408.23195	-277.98837	93.98992	-389.53087	-337.61554	58.05561	-437.15215	-159.78401	43.17711	-342.50513	-124.78946	70.93077	-396.60584	-218.30060	505.67780	-789.63356	-186.34313	422.96982	-788.92238	-266.39191	98.01320	-819.21587	-335.73738	50.50401	-772.42696	-160.81539	40.74346	-864.95502	-113.02022	65.74981	-809.95018	-201.60756	298.95366	-399.41510	-254.11994	420.65544	-371.00778	-272.68458	308.36199	-357.69198	-267.88816	446.83753	-824.84479	-281.37370	326.98026	-844.00502	-147.12681	780.74433	-422.82794	-146.75374	669.72024	-421.78727	-200.87682	644.96622	-389.41612	-259.96926	776.57391	-408.57635	-251.24561	660.35488	-409.35947	-134.85182	750.77633	-781.61923	-127.87408	610.26873	-774.05376	-239.27703	746.09125	-815.68989	-234.79026	613.27292	-799.68869	-106.62765	962.78189	-479.64161	-312.44926	1009.89563	-562.75584	-114.01365	963.27347	-738.10842	-313.37252	1009.98795	-656.38607	-278.86258	1461.74142	-610.42499	-212.43299	1434.35150	-441.61537	-190.21147	1431.54271	-761.80298	-151.80876	1390.83115	-580.33981	-152.92245	1392.74551	-625.76501	-169.72626	1303.58075	-390.49651	-227.91025	1097.84538	-445.53325	-224.98795	1106.12268	-378.11643	-169.16951	1047.56770	-351.24613	-101.53500	889.79048	-373.74019	-139.68532	886.79665	-341.56626	-152.53988	1290.49027	-814.02509	-223.25772	1090.60436	-768.43845	-190.74942	1099.81522	-838.42012	-136.43383	1046.77726	-843.18814	-78.67403	878.02826	-811.28171	-109.26958	878.57181	-854.31594	-198.03602	881.97485	-507.40968	-199.26560	882.57526	-696.96725	-187.48185	890.07891	-515.55264	-189.16441	890.24709	-686.20214	
3	0.02000000	-216.76290	502.41941	-413.67233	-188.83955	411.85177	-408.22276	-277.98622	93.95737	-389.60549	-337.61986	58.04537	-437.14900	-159.80158	43.13594	-342.50304	-124.79780	70.92152	-396.59219	-218.27484	505.67933	-789.63756	-186.32328	422.96690	-788.91466	-266.39486	98.01823	-819.20994	-335.84751	50.09907	-772.11469	-160.80843	40.74985	-864.96624	-113.02083	65.75010	-809.94719	-201.58126	298.93299	-399.43045	-254.13498	420.61973	-371.00844	-272.56184	308.53982	-357.74886	-267.85681	446.83915	-824.84594	-281.37810	326.99436	-844.04434	-147.09186	780.76481	-422.84825	-146.72877	669.72104	-421.76550	-200.89102	644.95461	-389.45029	-259.93402	776.57147	-408.55379	-251.23989	660.35512	-409.36136	-134.81734	750.76972	-781.61291	-127.86642	610.29015	-774.07473	-239.24287	746.09361	-815.69238	-234.76394	613.27085	-799.68633	-106.59273	962.76840	-479.64349	-312.33543	1009.89027	-562.78720	-113.98556	963.27207	-738.10531	-313.33576	1009.98226	-656.38249	-278.92277	1461.72240	-610.43475	-212.48426	1434.30508	-441.69102	-190.27224	1431.50701	-761.85959	-151.83165	1390.81596	-580.36110	-152.97005	1392.70508	-625.82226	-169.70094	1303.58799	-390.53779	-227.83558	1097.87652	-445.50355	-224.92038	1106.17496	-378.01312	-169.12506	1047.56264	-351.21475	-101.48146	889.79038	-373.69430	-139.61577	886.77968	-341.53611	-152.59520	1290.43388	-814.05169	-223.34253	1090.56074	-768.47593	-190.83234	1099.75823	-838.38266	-136.50218	1046.70456	-843.22753	-78.73224	877.99434	-811.27784	-109.33194	878.49454	-854.23956	-197.98674	881.96595	-507.41823	-199.21964	882.56948	-696.97578	-187.37716	890.08616	-515.48901	-189.20143	890.25380	-686.13443	
4	0.03000000	-216.75997	502.37940	-413.69616	-188.84558	411.86053	-408.22061	-277.99110	93.97789	-389.58103	-337.59418	58.05572	-437.17251	-159.78044	43.13640	-342.49686	-124.79101	70.92691	-396.60137	-218.25327	505.68224	-789.63910	-186.30310	422.97384	-788.91599	-266.39345	98.02194	-819.21265	-335.91504	49.92052	-771.92798	-160.79226	40.59370	-864.76798	-113.02121	65.75390	-809.94432	-201.55956	298.92479	-399.45968	-254.15193	420.58359	-371.00835	-272.26182	308.90510	-357.89935	-267.83953	446.83663	-824.83916	-281.36211	327.00713	-844.10712	-147.00531	780.70397	-422.84776	-146.68718	669.73235	-421.80732	-200.87595	644.92664	-389.44831	-259.89076	776.54820	-408.56376	-251.23214	660.34918	-409.38381	-134.78872	750.76420	-781.60835	-127.86751	610.29121	-774.10451	-239.21898	746.09315	-815.69682	-234.72601	613.28576	-799.72527	-106.55312	962.77489	-479.63311	-312.31029	1009.87673	-562.89871	-113.95476	963.26745	-738.10618	-313.31035	1009.93620	-656.32494	-278.96488	1461.69045	-610.40817	-212.49923	1434.23828	-441.78271	-190.32629	1431.46129	-761.90585	-151.85995	1390.80089	-580.38869	-153.02863	1392.65119	-625.88382	-169.67733	1303.58917	-390.58354	-227.79060	1097.89301	-445.48443	-224.86017	1106.17833	-377.97545	-169.08340	1047.56898	-351.19246	-101.41900	889.80402	-373.63348	-139.57997	886.81117	-341.51275	-152.64182	1290.33742	-814.04567	-223.37644	1090.56435	-768.51752	-190.90553	1099.72158	-838.40033	-136.55594	1046.64640	-843.25718	-78.80746	877.96060	-811.27359	-109.44408	878.41898	-854.18870	-197.94634	881.96311	-507.41881	-199.16841	882.54875	-696.97647	-187.34391	890.11837	-515.45415	-189.17078	890.22700	-686.10698	
5	0.04000000	-216.76724	502.23431	-413.81452	-188.82467	411.86182	-408.22219	-278.01590	93.98629	-389.56223	-337.57070	58.06796	-437.20669	-159.75842	43.15682	-342.49405	-124.79302	70.92761	-396.61288	-218.23999	505.67938	-789.63834	-186.29292	422.97174	-788.92481	-266.38641	98.01840	-819.21565	-335.84499	50.13272	-772.08899	-160.78813	40.27624	-864.35109	-113.02021	65.75474	-809.94813	-201.56351	298.93431	-399.45555	-254.11650	420.61674	-371.00372	-272.15402	308.91561	-357.94734	-267.82778	446.83143	-824.84926	-281.32969	326.96289	-844.06979	-146.95435	780.67116	-422.84291	-146.62116	669.73454	-421.87686	-200.84342	644.89523	-389.40725	-259.84903	776.55105	-408.60013	-251.21477	660.34589	-409.39059	-134.77200	750.76109	-781.61184	-127.84444	610.24252	-774.11052	-239.21362	746.08596	-815.69827	-234.68592	613.30382	-799.78723	-106.49320	962.76592	-479.60754	-312.52961	1009.83735	-563.04551	-113.92090	963.26094	-738.10454	-313.26934	1009.91505	-656.31892	-279.00285	1461.67289	-610.41613	-212.48503	1434.19846	-441.81681	-190.38744	1431.41217	-761.96789	-151.90452	1390.78393	-580.44624	-153.07507	1392.63466	-625.92309	-169.64925	1303.57951	-390.62241	-227.79525	1097.89643	-445.48747	-224.79468	1106.17276	-377.97017	-169.03169	1047.57016	-351.20287	-101.35570	889.82576	-373.57094	-139.52770	886.84235	-341.43702	-152.70298	1290.21157	-814.00148	-223.24122	1090.62588	-768.46363	-190.94720	1099.66583	-838.41017	-136.61170	1046.56783	-843.22620	-78.86926	877.89407	-811.24667	-109.60195	878.28300	-854.03338	-197.97504	881.94584	-507.44441	-199.13411	882.53434	-697.00245	-187.53178	890.03295	-515.66223	-188.88474	890.17527	-686.33420	
6	0.05000000	-216.73805	502.24685	-413.88855	-188.80808	411.87036	-408.21516	-278.01304	93.99409	-389.54643	-337.55697	58.07708	-437.22821	-159.75843	43.17321	-342.50048	-124.80322	70.92922	-396.61554	-218.23198	505.66588	-789.63793	-186.29243	422.96120	-788.93185	-266.38794	98.01155	-819.21353	-335.73973	50.35030	-772.33380	-160.79174	40.05660	-864.06738	-113.02021	65.74714	-809.95702	-201.57519	298.94345	-399.42561	-254.03566	420.67211	-371.03583	-272.13042	308.80152	-357.94437	-267.81392	446.83505	-824.88007	-281.32617	326.92296	-844.02198	-146.94184	780.69345	-422.84858	-146.53850	669.72755	-421.95024	-200.82929	644.91025	-389.38909	-259.82253	776.57433	-408.61592	-251.19548	660.33678	-409.39288	-134.75618	750.75805	-781.61567	-127.79996	610.17398	-774.08916	-239.21591	746.07502	-815.69312	-234.67987	613.29235	-799.79302	-106.44315	962.76388	-479.59779	-312.63930	1009.80856	-563.04952	-113.89523	963.25089	-738.10297	-313.21055	1009.91335	-656.34727	-279.06832	1461.66494	-610.49668	-212.47347	1434.17190	-441.80187	-190.44809	1431.35892	-762.02291	-151.96578	1390.76562	-580.52003	-153.12050	1392.64285	-625.95431	-169.60585	1303.54128	-390.67351	-227.75306	1097.92412	-445.48042	-224.70556	1106.19394	-377.95342	-168.97033	1047.56992	-351.20439	-101.29867	889.83827	-373.52708	-139.44649	886.87069	-341.31439	-152.78256	1290.10620	-813.98272	-223.02492	1090.69582	-768.34777	-190.93860	1099.56549	-838.32600	-136.64441	1046.46486	-843.14948	-78.90942	877.80754	-811.21682	-109.73818	878.10059	-853.75613	-197.96920	881.93557	-507.44923	-199.10587	882.52607	-697.00740	-187.63586	889.95642	-515.81548	-188.67962	890.14830	-686.49513	
